HIERARCHY
ROOT Hips
{
	OFFSET 0.0000 0.0000 0.0000
	CHANNELS 6 Xposition Yposition Zposition Zrotation Xrotation Yrotation
	JOINT Ab
	{
		OFFSET -0.0000 8.0846 -0.0000
		CHANNELS 3 Zrotation Xrotation Yrotation
		JOINT Chest
		{
			OFFSET -0.0000 25.0068 -0.0000
			CHANNELS 3 Zrotation Xrotation Yrotation
			JOINT Neck
			{
				OFFSET -0.0000 25.0068 0.0000
				CHANNELS 3 Zrotation Xrotation Yrotation
				JOINT Head
				{
					OFFSET -0.0000 10.7556 0.0000
					CHANNELS 3 Zrotation Xrotation Yrotation
					End Site
					{
						OFFSET -0.0000 16.6222 0.0000
					}
				}
			}
			JOINT LeftCollar
			{
				OFFSET -0.0000 25.0068 0.0000
				CHANNELS 3 Zrotation Xrotation Yrotation
				JOINT LeftShoulder
				{
					OFFSET 19.5556 -0.0000 0.0000
					CHANNELS 3 Zrotation Xrotation Yrotation
					JOINT LeftElbow
					{
						OFFSET 27.1828 0.0000 0.0000
						CHANNELS 3 Zrotation Xrotation Yrotation
						JOINT LeftWrist
						{
							OFFSET 23.3157 0.0000 0.0000
							CHANNELS 3 Zrotation Xrotation Yrotation
							End Site
							{
								OFFSET 0.0000 -14.6667 0.0000
							}
						}
					}
				}
			}
			JOINT RightCollar
			{
				OFFSET -0.0000 25.0068 0.0000
				CHANNELS 3 Zrotation Xrotation Yrotation
				JOINT RightShoulder
				{
					OFFSET -19.5556 0.0000 0.0000
					CHANNELS 3 Zrotation Xrotation Yrotation
					JOINT RightElbow
					{
						OFFSET -27.1828 0.0000 0.0000
						CHANNELS 3 Zrotation Xrotation Yrotation
						JOINT RightWrist
						{
							OFFSET -23.3157 0.0000 0.0000
							CHANNELS 3 Zrotation Xrotation Yrotation
							End Site
							{
								OFFSET -0.0000 -14.6667 0.0000
							}
						}
					}
				}
			}
		}
	}
	JOINT LeftHip
	{
		OFFSET 11.7333 0.0000 0.0000
		CHANNELS 3 Zrotation Xrotation Yrotation
		JOINT LeftKnee
		{
			OFFSET -0.0000 -40.8688 0.0000
			CHANNELS 3 Zrotation Xrotation Yrotation
			JOINT LeftAnkle
			{
				OFFSET -0.0000 -44.4337 0.0000
				CHANNELS 3 Zrotation Xrotation Yrotation
				End Site
				{
					OFFSET -0.0000 -4.8889 16.6222
				}
			}
		}
	}
	JOINT RightHip
	{
		OFFSET -11.7333 0.0000 0.0000
		CHANNELS 3 Zrotation Xrotation Yrotation
		JOINT RightKnee
		{
			OFFSET -0.0000 -40.8688 0.0000
			CHANNELS 3 Zrotation Xrotation Yrotation
			JOINT RightAnkle
			{
				OFFSET -0.0000 -44.4337 0.0000
				CHANNELS 3 Zrotation Xrotation Yrotation
				End Site
				{
					OFFSET -0.0000 -4.8889 16.6222
				}
			}
		}
	}
}
MOTION
Frames: 10
Frame Time: 0.010000
0.3983 88.1373 80.6049 1.0846 358.8117 183.2306 2.3808 5.1649 359.7923 355.4926 8.3498 0.2301 1.0212 341.6781 357.5105 3.6809 9.0230 357.0560 340.6474 358.4207 9.3111 299.9091 10.1396 7.3801 10.6131 356.1188 320.2763 84.0466 356.7230 330.7937 20.6076 358.9661 354.3849 28.5139 48.2297 38.7718 329.3382 348.6445 40.7352 275.7966 349.0215 10.4371 1.9291 352.0465 354.4784 357.6312 17.4047 355.9012 354.4364 349.5992 22.2786 1.8631 345.2947 3.4646 359.1860 27.4277 11.5855 358.5386 340.0369 334.5650 
0.2898 88.0563 80.1348 1.2503 359.1495 182.9929 2.2033 5.1143 359.9600 355.4822 8.5849 0.3988 1.1912 341.4975 357.4936 3.6027 9.3955 357.0000 340.6573 358.4105 9.3330 299.8706 10.0111 7.4905 10.6161 356.1536 320.4213 84.0802 356.6847 330.9169 20.6500 358.9803 354.4384 27.3581 48.2323 39.6074 329.9047 348.8352 40.7140 275.9279 348.8877 11.1993 2.1049 352.6565 354.8572 357.6202 17.5357 355.8659 353.9772 349.0300 22.1454 2.0636 345.5124 3.4527 359.0836 28.1550 11.9157 358.5100 339.4978 334.4560 
0.1553 87.9956 79.6745 1.3312 359.4002 182.8389 1.9876 4.9879 0.0867 355.4590 8.8148 0.5256 1.2684 341.3211 357.4156 3.6132 9.7597 356.8929 340.5914 358.4080 9.2549 299.9276 9.9016 7.5704 10.5482 356.2091 320.5796 84.1877 356.6555 331.0027 20.7459 358.9934 354.4595 26.6754 47.8588 39.9509 330.6663 349.1096 41.0306 276.2701 348.8803 12.3623 2.1560 353.1981 355.1114 357.6173 17.5960 355.9074 354.0854 348.7670 21.9970 2.1477 345.5785 3.1978 358.9014 29.0133 12.4813 355.4847 341.2839 333.9731 
0.0230 87.9529 79.2207 1.3716 359.6213 182.6977 1.7963 4.9248 0.1742 355.3525 8.8715 0.6075 1.1930 341.3450 357.3214 3.9179 9.9586 356.7817 340.5034 358.3944 9.2337 300.0213 10.0460 7.6592 10.6082 356.1870 320.7771 84.2476 356.6749 331.2309 20.9172 358.9621 354.4530 25.8970 47.7010 40.3774 331.4732 349.4102 41.0977 276.2512 348.8225 13.1340 2.1703 353.7154 355.3071 357.5820 17.6509 355.9231 354.1458 348.4783 21.8727 2.2117 345.5350 2.9847 358.7167 30.0044 12.8599 353.5250 342.3180 333.7210 
-0.1042 87.9172 78.7779 1.3888 359.8483 182.6479 1.7676 4.8352 0.1396 355.0189 9.0100 0.5740 1.0576 341.3909 357.2367 4.3655 10.1078 356.6787 340.5986 358.4034 9.1488 300.0385 9.7881 7.7182 10.4569 356.2917 320.9198 84.3691 356.7133 331.1991 21.1143 358.9608 354.6101 25.5632 47.5425 40.3684 332.2640 349.6928 41.1924 276.3990 348.7839 14.0403 2.1638 354.2103 355.3991 357.5415 17.7388 355.7375 354.1837 348.1479 21.9118 2.2169 345.4762 2.9950 358.7512 31.0093 12.6999 353.5580 341.8736 333.7063 
-0.2253 87.8821 78.3448 1.4223 0.0158 182.6248 1.6753 4.8097 0.1118 354.8020 8.9588 0.5636 0.9906 341.4265 357.1955 4.6921 10.3562 356.6127 340.6272 358.3899 9.2306 300.1196 9.9555 7.6623 10.4497 356.3045 321.2096 84.3775 356.7225 331.2812 21.2103 358.9906 354.7807 25.6114 47.4420 40.0527 332.9296 349.8980 41.3250 277.0151 348.8406 15.1192 2.1801 354.6483 355.4499 357.4790 17.8040 355.7095 354.3043 347.8365 21.8274 2.2468 345.2804 2.9805 358.7422 32.1674 12.6851 353.5715 341.5504 333.6154 
-0.3404 87.8351 77.9254 1.4435 0.0480 182.5362 1.4451 4.7552 0.2409 354.7054 8.6903 0.6847 1.0553 341.5504 357.1507 4.8042 10.6224 356.5320 340.4721 358.3959 9.3049 300.4730 10.3606 7.6443 10.4480 356.3253 321.5064 84.2930 356.7056 331.3779 21.2890 359.0187 354.8204 25.8137 47.3718 39.6162 333.7279 350.2020 41.4339 277.0061 348.9414 16.0840 2.1890 354.9736 355.5041 357.3808 17.8362 355.7174 354.6586 347.6859 21.8265 2.2547 344.8740 3.1052 358.8617 33.4354 12.3594 353.4153 341.2957 333.6258 
-0.4491 87.7828 77.5473 1.5064 0.0774 182.5909 1.3796 4.7336 0.2224 354.5426 8.4774 0.6706 0.9735 341.6441 356.9949 5.0434 10.8702 356.3543 340.4689 358.4183 9.1279 300.6094 10.5661 7.6316 10.4782 356.3463 321.6192 84.1362 356.8287 331.3481 21.3336 359.0069 354.6459 26.1976 47.1364 39.2061 334.5338 350.5104 41.4871 277.4462 348.9698 17.2162 2.2331 355.2474 355.5380 357.3094 17.8471 355.6984 354.8070 347.4693 21.7526 2.2357 344.3801 3.0409 358.9882 34.8353 12.0239 353.2507 340.9832 333.7494 
-0.5762 87.7366 77.1360 1.5601 0.2141 182.6557 1.4561 4.8525 0.0791 354.2103 8.1805 0.5622 0.9611 341.7538 356.9712 5.2760 11.1593 356.3070 340.5004 358.3917 9.2690 300.7145 11.0439 7.5068 10.6482 356.2741 321.7496 84.0606 356.8861 331.4939 21.4738 359.0061 354.7220 26.9132 46.8480 38.3052 335.5012 350.8899 41.7398 277.6900 348.9748 18.3605 2.2485 355.6942 355.5770 357.2886 17.7687 355.6404 354.8633 347.2546 21.6638 2.1677 343.9964 2.9173 359.3399 36.1762 10.9621 352.9384 340.8954 334.2472 
-0.6841 87.7008 76.7245 1.6746 0.2772 182.6737 1.5186 4.8005 0.0877 353.9656 8.0803 0.5743 1.0051 341.7531 356.9848 5.3881 11.4372 356.2922 340.5319 358.4019 9.3259 300.8358 11.0892 7.3098 10.5576 356.3386 321.8405 84.0492 356.9973 331.4063 21.4846 358.9942 354.6995 27.3267 46.9317 37.9002 336.1209 351.0701 41.6495 278.0500 348.9728 19.0543 2.3448 356.1159 355.5986 357.2393 17.6068 355.6215 354.9084 347.0926 21.6041 2.1786 343.5167 2.8591 359.6037 37.5580 10.4185 352.9957 340.9382 334.4555 
